HIERARCHY
ROOT Hips
{
  OFFSET 265.287 66.7526 -254.649
  CHANNELS 6 Xposition Yposition Zposition Zrotation Xrotation Yrotation
  JOINT LeftUpLeg
  {
    OFFSET 8.64259 1.95398 -2.38835
    CHANNELS 3 Zrotation Xrotation Yrotation
    JOINT LeftLeg
    {
      OFFSET 43.7702 0 0
      CHANNELS 3 Zrotation Xrotation Yrotation
      JOINT LeftFoot
      {
        OFFSET 40.6238 0 0
        CHANNELS 3 Zrotation Xrotation Yrotation
        JOINT LeftToeBase
        {
          OFFSET 12.7242 0 0
          CHANNELS 3 Zrotation Xrotation Yrotation
          End Site
          {
            OFFSET 0 0 0
          }
        }
      }
    }
  }
  JOINT RightUpLeg
  {
    OFFSET -8.2249 1.95398 -2.59336
    CHANNELS 3 Zrotation Xrotation Yrotation
    JOINT RightLeg
    {
      OFFSET 43.5653 0 0
      CHANNELS 3 Zrotation Xrotation Yrotation
      JOINT RightFoot
      {
        OFFSET 40.6238 0 0
        CHANNELS 3 Zrotation Xrotation Yrotation
        JOINT RightToeBase
        {
          OFFSET 12.7242 0 0
          CHANNELS 3 Zrotation Xrotation Yrotation
          End Site
          {
            OFFSET 0 0 0
          }
        }
      }
    }
  }
  JOINT Spine
  {
    OFFSET 0.165834 0.87714 6.61349
    CHANNELS 3 Zrotation Xrotation Yrotation
    JOINT Spine1
    {
      OFFSET 7.38963 1.71661e-005 0
      CHANNELS 3 Zrotation Xrotation Yrotation
      JOINT Spine2
      {
        OFFSET 11.9445 1.14441e-005 0
        CHANNELS 3 Zrotation Xrotation Yrotation
        JOINT Spine3
        {
          OFFSET 14.7254 4.19617e-005 0
          CHANNELS 3 Zrotation Xrotation Yrotation
          JOINT Spine4
          {
            OFFSET 10.9679 0 0
            CHANNELS 3 Zrotation Xrotation Yrotation
            JOINT RightShoulder
            {
              OFFSET 2.46616 -1.6653 3.69651
              CHANNELS 3 Zrotation Xrotation Yrotation
              JOINT RightArm
              {
                OFFSET 13.0012 0 0
                CHANNELS 3 Zrotation Xrotation Yrotation
                JOINT RightForeArm
                {
                  OFFSET 28.7848 1.52588e-005 0
                  CHANNELS 3 Zrotation Xrotation Yrotation
                  JOINT RightHand
                  {
                    OFFSET 26.5688 1.52588e-005 0
                    CHANNELS 3 Zrotation Xrotation Yrotation
                    End Site
                    {
                      OFFSET 0 0 0
                    }
                  }
                }
              }
            }
            JOINT LeftShoulder
            {
              OFFSET 2.38034 -1.29275 -3.7523
              CHANNELS 3 Zrotation Xrotation Yrotation
              JOINT LeftArm
              {
                OFFSET 16.3182 6.10351e-005 0
                CHANNELS 3 Zrotation Xrotation Yrotation
                JOINT LeftForeArm
                {
                  OFFSET 27.0901 0 0
                  CHANNELS 3 Zrotation Xrotation Yrotation
                  JOINT LeftHand
                  {
                    OFFSET 24.5451 1.52588e-005 0
                    CHANNELS 3 Zrotation Xrotation Yrotation
                    End Site
                    {
                      OFFSET 0 0 0
                    }
                  }
                }
              }
            }
            JOINT Neck
            {
              OFFSET 5.0226 -0.0266342 0
              CHANNELS 3 Zrotation Xrotation Yrotation
              JOINT Head
              {
                OFFSET 6.69364 2.86102e-005 0
                CHANNELS 3 Zrotation Xrotation Yrotation
                End Site
                {
                  OFFSET 0 0 0
                }
              }
            }
          }
        }
      }
    }
  }
}
MOTION
Frames:	15
Frame Time:	0.0416667
35.491 86.7982 -301.663 -33.4121 -67.8721 -28.1249 167.7 34.2187 82.6796 -22.8858 -71.7052 71.584 -69.081 8.58563 169.92 -15.2405 -17.4646 60.0931 170.311 56.0089 108.747 -35.1444 14.309 2.02136 46.078 10.8905 50.0199 75.0517 43.8669 124.73 1.79437 7.98263 -90.061 10.92 3.54431 -0.456137 -0.746261 3.52081 -0.611881 -23.3196 3.51734 0.631526 -3.30696 3.51734 0.631537 97.9627 -39.8116 -89.6412 35.5134 6.12197 17.2162 17.2511 -8.74694 -113.303 105.686 47.5034 31.4268 31.5255 -82.2819 -149.629 88.3124 -8.75144 -70.0355 -39.2579 -43.974 -33.9108 13.7977 0.319989 -1.48061 137.053 14.4255 -7.40284 -119.952 13.5344 5.25191 
35.4227 86.6978 -302.429 -33.1845 -67.7979 -28.0714 168.266 33.6152 81.8276 -8.27959 -72.4016 85.5547 -68.955 9.96657 172.903 -14.6214 -17.516 60.5186 170.529 56.1636 108.55 -34.4351 16.8172 1.84887 45.0492 10.7801 51.9568 72.6571 43.2606 128.137 1.77929 7.97565 -90.0341 10.9332 3.52673 -0.401596 -0.733127 3.50565 -0.556597 -23.3059 3.48417 0.678236 -3.29328 3.48418 0.678244 97.9545 -39.539 -89.6838 35.9896 6.07087 17.8663 16.9968 -8.88133 -113.894 104.287 47.9608 32.677 33.5277 -82.342 -147.715 89.4807 -8.94076 -69.6153 -40.701 -44.3513 -35.1734 14.4376 0.260189 -1.9943 137.124 14.5501 -7.58491 -120.159 13.3584 5.58663 
35.2235 86.4021 -304.632 -32.532 -67.5859 -27.9303 169.822 31.744 79.4032 29.2127 -68.5757 120.997 -69.1098 13.9039 -178.896 -12.7728 -17.6822 61.8682 171.213 56.5376 107.939 -32.1557 24.0568 1.33486 41.727 10.0953 57.262 68.9323 42.6348 134.284 1.73526 7.95557 -89.9557 10.9707 3.47511 -0.242634 -0.695677 3.46106 -0.395534 -23.2669 3.38717 0.814235 -3.25421 3.38718 0.814234 97.9334 -38.7581 -89.8035 37.3737 5.91651 19.7326 16.2558 -9.24744 -115.583 100.533 49.1195 36.1082 39.3576 -82.4649 -142.137 92.6635 -9.45724 -68.402 -44.7566 -45.1542 -38.7497 16.2044 0.0737274 -3.36416 137.399 14.9239 -8.19842 -120.287 12.5635 6.75879 
34.8994 85.9173 -308.12 -31.5016 -67.2517 -27.7421 172.039 28.3909 75.6151 56.1274 -55.0236 144.045 -70.2906 19.0436 -168.331 -9.66895 -18.0113 64.4402 172.468 56.8868 106.834 -27.7382 35.4566 0.424182 35.8019 7.60484 64.3305 70.4053 46.0574 135.682 1.66317 7.92386 -89.8289 11.0298 3.39016 0.0152941 -0.63669 3.38755 -0.134105 -23.205 3.22866 1.03454 -3.19232 3.22866 1.03455 97.9065 -37.5311 -89.9854 39.6142 5.65162 22.6644 15.0472 -9.74413 -118.222 95.3474 50.5715 41.0357 48.5945 -82.5091 -133.292 97.1226 -10.2435 -66.5158 -50.674 -45.6318 -43.9613 18.7887 -0.251382 -5.23122 136.632 15.2526 -7.67229 -127.417 15.9704 4.96915 
34.4561 85.2595 -312.743 -30.1395 -66.8113 -27.5551 174.413 23.2904 70.7129 72.4315 -34.066 152.839 -73.1622 24.0362 -155.531 -5.4318 -18.6546 68.8422 174.459 56.7552 105.088 -19.9898 47.6976 -1.13257 28.0612 3.92583 69.1184 84.9129 55.4817 123.484 1.56328 7.88187 -89.6555 11.1083 3.27163 0.368344 -0.558529 3.28468 0.223844 -23.1224 3.00954 1.33544 -3.1097 3.00955 1.33543 97.8818 -35.9253 -90.2131 42.6805 5.26721 26.4727 13.365 -10.1927 -121.635 89.6457 51.9844 46.7029 60.2194 -82.3039 -122.173 101.851 -11.4052 -64.2095 -57.0924 -45.0453 -49.343 21.8527 -0.703287 -7.22452 136.78 15.7768 -8.15848 -129.828 16.49 5.47602 
34.1261 84.5205 -318.258 -36.431 -69.864 -30.9322 176.239 15.9491 74.0227 -100.008 24.7048 25.3518 -116.429 -20.8781 20.8691 -1.1057 -20.1744 76.0614 175.649 51.3876 107.514 -7.66516 63.3492 -3.17809 19.8675 -2.35673 70.0107 121.403 61.09 87.7066 1.59832 8.30128 -89.8536 10.3514 3.25321 -0.166837 -1.3144 3.24268 -0.310023 -23.8885 3.15266 0.81956 -3.8759 3.15266 0.819553 97.8665 -34.0116 -90.4709 46.5526 4.76336 30.9275 11.2094 -10.3534 -125.611 84.0899 53.1868 52.4712 72.5049 -81.7248 -110.481 105.652 -13.387 -61.9234 -62.3015 -43.044 -52.7313 25.1053 -1.2454 -9.09151 137.257 16.4093 -9.05205 -130.939 16.0506 6.83276 
33.9991 84.2233 -325.38 -141.377 -78.3118 -129.031 -179.706 -28.8083 76.5954 -95.4863 21.5722 28.734 -130.01 -13.789 3.70456 -1.56838 -25.6578 86.5905 178.962 28.0187 106.589 1.74208 77.5787 -8.81975 14.7533 -6.2349 69.6442 151.83 53.8128 56.2078 1.85887 11.057 -90.8978 4.83952 3.3333 -1.62439 -6.82698 3.25854 -1.76962 -29.4042 3.66714 -0.546407 -9.39158 3.66715 -0.546421 97.8657 -31.8653 -90.7451 51.1991 4.16012 35.7612 8.62919 -9.97389 -129.88 79.1013 54.1312 57.8585 83.7232 -80.7535 -99.9138 106.984 -17.1623 -60.4417 -64.8454 -39.5611 -51.5961 28.3196 -1.8475 -10.7675 137.748 16.9705 -9.86824 -132.332 16.0337 7.88603 
32.9165 83.4736 -333.284 -147.665 -73.5453 -144.425 173.741 -37.6829 50.25 -91.7657 21.0621 42.2627 -122.306 45.3442 -21.0119 -59.5488 -28.8432 60.9264 179.283 26.3361 101.159 22.5698 81.5972 -30.8671 11.3335 -9.72946 69.2817 161.177 45.486 44.6303 1.38171 11.6944 -89.7045 3.46864 2.87934 0.576144 -8.19933 2.90191 0.448754 -30.754 2.57302 1.41537 -10.7414 2.57302 1.41538 97.881 -29.5673 -91.0253 56.5489 3.50312 40.6898 5.74172 -8.85887 -134.119 74.9085 54.8362 62.5438 92.9576 -79.4699 -91.3595 103.167 -24.4327 -61.6028 -63.9139 -34.2031 -42.8365 31.3476 -2.54174 -12.4487 138.963 18.7553 -13.0231 -130.177 9.51011 14.3311 
32.2331 82.3487 -340.676 -150.085 -74.3316 -145.185 175.749 -41.2599 55.0966 -69.9776 4.17849 34.4668 49.4876 63.121 164.394 -21.5863 49.8141 -43.7546 -179.823 30.3767 102.39 104.706 84.7317 -112.73 8.8309 -11.5023 67.5781 163.929 39.3567 39.4993 1.32894 11.6603 -89.8208 3.5477 2.72659 0.356758 -8.12041 2.73965 0.23632 -30.6752 2.49325 1.16021 -10.6625 2.49324 1.1602 97.9114 -27.1975 -91.3054 62.4702 2.85568 45.4668 2.71255 -6.93841 -138.011 71.5862 55.348 66.3683 100.135 -77.9947 -84.8636 87.4066 -36.6707 -71.2909 -60.0555 -25.2055 -22.5493 34.2293 -3.46577 -14.5517 139.801 19.6828 -14.7008 -129.864 7.53399 17.0512 
31.4498 81.1553 -348.483 -153.126 -74.8096 -146.928 175.854 -41.9363 60.8969 -118.357 55.5493 57.1837 65.135 -6.6649 164.89 48.2163 -9.37178 -70.9276 -179.009 34.119 103.005 143.663 78.9274 -151.399 7.11563 -12.8355 65.3381 163.805 35.6715 37.398 1.24714 11.662 -89.8883 3.54582 2.53626 0.224298 -8.12264 2.54367 0.112387 -30.6754 2.35153 0.976591 -10.6627 2.35153 0.976595 97.9532 -24.8285 -91.5828 68.7783 2.27829 49.9204 -0.298968 -4.28016 -141.316 69.1113 55.7165 69.2979 105.578 -76.4422 -80.0781 43.3214 -44.8595 -105.376 -57.0618 6.45555 1.35935 37.4131 -4.58063 -16.7376 140.478 20.1992 -15.8338 -130.394 7.03952 18.4816 
30.5984 79.9132 -356.463 -156.716 -75.21 -149.289 176.094 -48.1573 63.5369 71.6453 -52.0321 130.362 89.458 22.5345 63.821 60.803 -36.1351 -82.6913 -178.242 37.6398 103.122 153.948 72.8725 -161.355 6.10446 -13.7642 62.9107 162.681 33.5023 36.5876 1.14835 11.674 -89.9476 3.52361 2.3152 0.108634 -8.14528 2.31774 0.00657195 -30.6955 2.17546 0.799751 -10.6828 2.17546 0.799756 98.0012 -22.5245 -91.8584 75.2546 1.8138 53.954 -3.17918 -1.05292 -143.903 67.3992 55.981 71.3833 109.669 -74.9052 -76.6007 -6.26853 -23.356 -141.541 -28.4699 66.8809 -0.102778 41.2023 -4.92903 -16.4515 141.118 20.5581 -16.9072 -130.989 6.66943 19.757 
29.7621 78.6765 -364.41 -160.956 -75.4604 -152.542 176.728 -60.2708 63.9361 -34.5301 -30.8553 37.1524 113.7 -30.8017 154.482 47.9975 -18.8216 -98.541 -177.458 40.7209 102.51 159.232 67.7046 -166.33 5.67913 -14.3646 60.569 161.264 32.2073 36.3768 1.02281 11.7032 -89.9818 3.4661 2.05068 0.0425254 -8.20323 2.05056 -0.0478146 -30.7504 1.94305 0.65711 -10.7377 1.94305 0.6571 98.0492 -20.34 -92.1363 81.6766 1.48194 57.5343 -5.86811 2.52719 -145.747 66.3307 56.1662 72.7285 112.73 -73.4534 -74.0949 -30.2035 7.23484 -150.404 5.6194 83.9744 0.0812871 44.4138 -4.03553 -13.4776 141.696 20.8 -17.9374 -131.748 6.48557 20.8829 
28.8992 77.4854 -372.161 -165.933 -75.5245 -156.91 161.75 -81.5321 58.3881 -28.554 27.1882 22.4368 -155.432 -54.4701 -116.074 108.317 -32.0202 -7.80615 -176.612 43.2704 101.079 163.074 63.4931 -170.008 5.78405 -14.6725 58.5208 159.834 31.4195 36.4548 0.859145 11.752 -89.9785 3.36876 1.72496 0.0500313 -8.30105 1.72549 -0.0259667 -30.8446 1.63015 0.566275 -10.832 1.63015 0.566273 98.0913 -18.3163 -92.422 87.8572 1.28144 60.6751 -8.35213 6.256 -146.899 65.7816 56.2883 73.4575 115.005 -72.1342 -72.3042 -42.9547 27.25 -149.273 -152.662 87.559 179.099 46.4809 -2.88299 -10.5138 142.198 20.8022 -18.8827 -132.449 6.34449 21.8746 
28.0126 76.3454 -379.631 -171.643 -75.4125 -162.395 4.19811 -84.5699 -98.1423 -9.33845 32.4415 19.2884 -66.4455 -19.1586 -60.9003 129.91 13.7761 53.3973 -175.72 45.3509 98.9189 166.157 60.1081 -173.183 6.26217 -14.7338 56.847 158.502 30.9352 36.6696 0.652684 11.8142 -89.9402 3.24431 1.32761 0.125171 -8.42596 1.33183 0.0666053 -30.9659 1.2286 0.518456 -10.9533 1.2286 0.518439 98.1225 -16.4814 -92.7206 93.6653 1.1983 63.4115 -10.6481 9.97687 -147.447 65.642 56.3576 73.6886 116.678 -70.9765 -71.0407 -50.381 38.2495 -146.311 -141.988 82.8374 179.578 47.8588 -1.91366 -8.25726 142.594 20.5383 -19.7343 -133.083 6.17386 22.7598 
27.1423 75.2768 -386.688 -177.926 -75.1387 -168.74 -21.6187 -79.8236 -122.916 -1.03674 3.52002 15.0126 -52.1998 18.3464 -33.3626 116.157 27.967 74.2646 -174.864 46.9979 96.3683 168.344 57.3422 -175.599 6.82493 -14.6536 55.4661 157.314 30.6352 36.94 0.408466 11.88 -89.8793 3.11271 0.863766 0.242934 -8.55795 0.873618 0.204666 -31.0948 0.750822 0.49131 -11.0821 0.750815 0.491299 98.1389 -14.853 -93.0361 99.0225 1.21462 65.7843 -12.7849 13.5867 -147.483 65.8201 56.3819 73.5265 117.881 -69.9945 -70.1698 -54.2765 44.149 -144.03 -136.361 80.2915 179.653 48.8265 -1.11158 -6.50072 142.855 20.0116 -20.4968 -133.664 5.93452 23.5655 
